<?xml version="1.0" encoding="UTF-8"?>
<svg width="1024" height="1024" viewBox="0 0 1024 1024" fill="none" xmlns="http://www.w3.org/2000/svg">
  <rect width="1024" height="1024" fill="#4A00E0"/>
  <path d="M512 256C653.385 256 768 370.615 768 512C768 653.385 653.385 768 512 768C370.615 768 256 653.385 256 512C256 370.615 370.615 256 512 256ZM512 320C406.449 320 320 406.449 320 512C320 617.551 406.449 704 512 704C617.551 704 704 617.551 704 512C704 406.449 617.551 320 512 320ZM512 384C582.692 384 640 441.308 640 512C640 582.692 582.692 640 512 640C441.308 640 384 582.692 384 512C384 441.308 441.308 384 512 384Z" fill="white"/>
  <circle cx="800" cy="800" r="120" fill="white"/>
  <text x="760" y="860" font-size="120" font-weight="bold" fill="#4A00E0" font-family="Arial">Q</text>
</svg> 